<mxfile host="app.diagrams.net" modified="2020-12-09T15:20:55.156Z" agent="5.0 (Windows)" etag="_XaPGDFYXaz8JsZ9jkc-" version="13.10.6" type="github">
  <diagram name="Page-1" id="0783ab3e-0a74-02c8-0abd-f7b4e66b4bec">
    <mxGraphModel dx="956" dy="2009" grid="1" gridSize="10" guides="1" tooltips="1" connect="1" arrows="1" fold="1" page="1" pageScale="1" pageWidth="850" pageHeight="1100" background="#ffffff" math="0" shadow="0">
      <root>
        <mxCell id="0" />
        <mxCell id="1" parent="0" />
        <mxCell id="q7M6jUGMCmDY0D8WpHAc-1" value="" style="ellipse;fillColor=#000000;strokeColor=none;aspect=fixed;" parent="1" vertex="1">
          <mxGeometry x="1287.25" y="-1090" width="40" height="41.03" as="geometry" />
        </mxCell>
        <mxCell id="q7M6jUGMCmDY0D8WpHAc-2" value="" style="endArrow=open;endFill=1;endSize=12;html=1;fontSize=21;exitX=0.5;exitY=1;exitDx=0;exitDy=0;entryX=0.5;entryY=0;entryDx=0;entryDy=0;" parent="1" source="q7M6jUGMCmDY0D8WpHAc-1" target="q7M6jUGMCmDY0D8WpHAc-3" edge="1">
          <mxGeometry width="160" relative="1" as="geometry">
            <mxPoint x="1332" y="-720" as="sourcePoint" />
            <mxPoint x="1492" y="-720" as="targetPoint" />
          </mxGeometry>
        </mxCell>
        <mxCell id="q7M6jUGMCmDY0D8WpHAc-3" value="کلیک برروی signout" style="shape=rect;html=1;rounded=1;whiteSpace=wrap;align=center;fontSize=21;fontStyle=1" parent="1" vertex="1">
          <mxGeometry x="1220" y="-1000" width="174" height="70" as="geometry" />
        </mxCell>
        <mxCell id="q7M6jUGMCmDY0D8WpHAc-4" value="" style="endArrow=open;endFill=1;endSize=12;html=1;fontSize=21;exitX=0.5;exitY=1;exitDx=0;exitDy=0;entryX=0.5;entryY=0;entryDx=0;entryDy=0;" parent="1" source="q7M6jUGMCmDY0D8WpHAc-3" target="q7M6jUGMCmDY0D8WpHAc-17" edge="1">
          <mxGeometry width="160" relative="1" as="geometry">
            <mxPoint x="1306" y="-890" as="sourcePoint" />
            <mxPoint x="1307" y="-880" as="targetPoint" />
          </mxGeometry>
        </mxCell>
        <mxCell id="q7M6jUGMCmDY0D8WpHAc-9" value="نمایش پیام موفقیت امیز بستن حساب کاربری" style="shape=rect;html=1;rounded=1;whiteSpace=wrap;align=center;fontSize=21;fontStyle=1" parent="1" vertex="1">
          <mxGeometry x="990" y="-570" width="174" height="70" as="geometry" />
        </mxCell>
        <mxCell id="q7M6jUGMCmDY0D8WpHAc-10" value="" style="endArrow=open;endFill=1;endSize=12;html=1;fontSize=15;exitX=0;exitY=0.5;exitDx=0;exitDy=0;entryX=0.5;entryY=0;entryDx=0;entryDy=0;" parent="1" source="AogosZ2vTw-X-9OIK1Cw-1" target="q7M6jUGMCmDY0D8WpHAc-9" edge="1">
          <mxGeometry width="160" relative="1" as="geometry">
            <mxPoint x="1080.04" y="-717.97" as="sourcePoint" />
            <mxPoint x="1350" y="-690" as="targetPoint" />
            <Array as="points" />
          </mxGeometry>
        </mxCell>
        <mxCell id="q7M6jUGMCmDY0D8WpHAc-11" value="" style="endArrow=open;endFill=1;endSize=12;html=1;fontSize=15;" parent="1" source="q7M6jUGMCmDY0D8WpHAc-18" target="q7M6jUGMCmDY0D8WpHAc-13" edge="1">
          <mxGeometry width="160" relative="1" as="geometry">
            <mxPoint x="1307" y="-710" as="sourcePoint" />
            <mxPoint x="1307" y="-610" as="targetPoint" />
          </mxGeometry>
        </mxCell>
        <mxCell id="q7M6jUGMCmDY0D8WpHAc-13" value="" style="ellipse;html=1;shape=endState;fillColor=#000000;strokeColor=#000000;" parent="1" vertex="1">
          <mxGeometry x="1292.25" y="-370" width="30" height="30" as="geometry" />
        </mxCell>
        <mxCell id="q7M6jUGMCmDY0D8WpHAc-16" value="" style="endArrow=open;endFill=1;endSize=12;html=1;fontSize=15;exitX=0.5;exitY=1;exitDx=0;exitDy=0;entryX=0;entryY=0;entryDx=0;entryDy=0;" parent="1" source="q7M6jUGMCmDY0D8WpHAc-9" target="q7M6jUGMCmDY0D8WpHAc-13" edge="1">
          <mxGeometry width="160" relative="1" as="geometry">
            <mxPoint x="1077" y="-500" as="sourcePoint" />
            <mxPoint x="1350" y="-530" as="targetPoint" />
            <Array as="points">
              <mxPoint x="1077" y="-366" />
            </Array>
          </mxGeometry>
        </mxCell>
        <mxCell id="q7M6jUGMCmDY0D8WpHAc-17" value="نمایش اخطار برای حذف حساب کاربری و پرسش برای ادامه" style="shape=rect;html=1;rounded=1;whiteSpace=wrap;align=center;fontSize=21;fontStyle=1" parent="1" vertex="1">
          <mxGeometry x="1217.38" y="-900" width="179.75" height="90" as="geometry" />
        </mxCell>
        <mxCell id="q7M6jUGMCmDY0D8WpHAc-18" value="بازگشت به صفحه اصلی" style="shape=rect;html=1;rounded=1;whiteSpace=wrap;align=center;fontSize=21;fontStyle=1" parent="1" vertex="1">
          <mxGeometry x="1220.25" y="-510" width="174" height="70" as="geometry" />
        </mxCell>
        <mxCell id="q7M6jUGMCmDY0D8WpHAc-19" value="" style="endArrow=open;endFill=1;endSize=12;html=1;fontSize=15;" parent="1" source="q7M6jUGMCmDY0D8WpHAc-21" target="q7M6jUGMCmDY0D8WpHAc-18" edge="1">
          <mxGeometry width="160" relative="1" as="geometry">
            <mxPoint x="1307" y="-710" as="sourcePoint" />
            <mxPoint x="1307.25" y="-370" as="targetPoint" />
          </mxGeometry>
        </mxCell>
        <mxCell id="q7M6jUGMCmDY0D8WpHAc-20" value="&lt;font style=&quot;font-size: 17px&quot;&gt;&lt;b&gt;رد کردن&lt;/b&gt;&lt;/font&gt;" style="edgeLabel;html=1;align=center;verticalAlign=middle;resizable=0;points=[];fontSize=15;" parent="q7M6jUGMCmDY0D8WpHAc-19" vertex="1" connectable="0">
          <mxGeometry x="-0.43" y="1" relative="1" as="geometry">
            <mxPoint as="offset" />
          </mxGeometry>
        </mxCell>
        <mxCell id="q7M6jUGMCmDY0D8WpHAc-21" value="" style="rhombus;whiteSpace=wrap;html=1;" parent="1" vertex="1">
          <mxGeometry x="1267" y="-760" width="80" height="80" as="geometry" />
        </mxCell>
        <mxCell id="q7M6jUGMCmDY0D8WpHAc-25" value="" style="endArrow=open;endFill=1;endSize=12;html=1;exitX=0.5;exitY=1;exitDx=0;exitDy=0;entryX=0.5;entryY=0;entryDx=0;entryDy=0;" parent="1" source="q7M6jUGMCmDY0D8WpHAc-17" target="q7M6jUGMCmDY0D8WpHAc-21" edge="1">
          <mxGeometry width="160" relative="1" as="geometry">
            <mxPoint x="1440" y="-740" as="sourcePoint" />
            <mxPoint x="1600" y="-740" as="targetPoint" />
          </mxGeometry>
        </mxCell>
        <mxCell id="AogosZ2vTw-X-9OIK1Cw-1" value="&amp;nbsp;بستن حساب کاربری" style="shape=rect;html=1;rounded=1;whiteSpace=wrap;align=center;fontSize=21;fontStyle=1" vertex="1" parent="1">
          <mxGeometry x="1010" y="-690" width="174" height="70" as="geometry" />
        </mxCell>
        <mxCell id="AogosZ2vTw-X-9OIK1Cw-2" value="" style="endArrow=open;endFill=1;endSize=12;html=1;fontSize=15;exitX=0;exitY=0.5;exitDx=0;exitDy=0;entryX=0.5;entryY=0;entryDx=0;entryDy=0;" edge="1" parent="1" source="q7M6jUGMCmDY0D8WpHAc-21" target="AogosZ2vTw-X-9OIK1Cw-1">
          <mxGeometry width="160" relative="1" as="geometry">
            <mxPoint x="1267" y="-720" as="sourcePoint" />
            <mxPoint x="1077" y="-570" as="targetPoint" />
            <Array as="points">
              <mxPoint x="1077" y="-720" />
            </Array>
          </mxGeometry>
        </mxCell>
        <mxCell id="AogosZ2vTw-X-9OIK1Cw-3" value="&lt;b&gt;&lt;font style=&quot;font-size: 16px&quot;&gt;تایید و ادامه &lt;br&gt;&lt;/font&gt;&lt;/b&gt;" style="edgeLabel;html=1;align=center;verticalAlign=middle;resizable=0;points=[];" vertex="1" connectable="0" parent="AogosZ2vTw-X-9OIK1Cw-2">
          <mxGeometry x="-0.6182" y="-1" relative="1" as="geometry">
            <mxPoint as="offset" />
          </mxGeometry>
        </mxCell>
      </root>
    </mxGraphModel>
  </diagram>
</mxfile>
